<svg width="19" height="19" viewBox="0 0 19 19" fill="none" xmlns="http://www.w3.org/2000/svg">
<path d="M18.7039 0.116627C18.9372 0.286267 19.0326 0.512453 18.9902 0.795186L16.276 17.0806C16.2406 17.2856 16.1275 17.4446 15.9367 17.5577C15.8377 17.6142 15.7282 17.6425 15.608 17.6425C15.5303 17.6425 15.4455 17.6248 15.3536 17.5895L10.5506 15.628L7.98484 18.7558C7.85761 18.9184 7.68444 18.9996 7.46532 18.9996C7.37343 18.9996 7.29568 18.9855 7.23207 18.9572C7.09777 18.9077 6.98998 18.8247 6.90869 18.7081C6.82741 18.5914 6.78676 18.4624 6.78676 18.3211V14.6208L15.9473 3.39279L4.61326 13.2001L0.425277 11.4825C0.163749 11.3835 0.022383 11.1891 0.00117805 10.8993C-0.0129586 10.6166 0.100134 10.4081 0.340457 10.2738L17.983 0.0954223C18.089 0.0318074 18.2021 0 18.3223 0C18.4636 0 18.5909 0.0388757 18.7039 0.116627Z" fill="currentColor"/>
</svg>
